<?xml version="1.0" encoding="UTF-8" standalone="no"?>
<!-- Created with Inkscape (http://www.inkscape.org/) -->

<svg
   xmlns:dc="http://purl.org/dc/elements/1.1/"
   xmlns:cc="http://creativecommons.org/ns#"
   xmlns:rdf="http://www.w3.org/1999/02/22-rdf-syntax-ns#"
   xmlns:svg="http://www.w3.org/2000/svg"
   xmlns="http://www.w3.org/2000/svg"
   xmlns:xlink="http://www.w3.org/1999/xlink"
   xmlns:sodipodi="http://sodipodi.sourceforge.net/DTD/sodipodi-0.dtd"
   xmlns:inkscape="http://www.inkscape.org/namespaces/inkscape"
   width="1033.6061"
   height="598.86719"
   id="svg4144"
   version="1.1"
   inkscape:version="0.48.4 r9939"
   sodipodi:docname="browser-2.svg">
  <defs
     id="defs4146">
    <filter
       inkscape:collect="always"
       id="filter4923"
       color-interpolation-filters="sRGB">
      <feGaussianBlur
         inkscape:collect="always"
         stdDeviation="4.4974607"
         id="feGaussianBlur4925" />
    </filter>
    <linearGradient
       gradientUnits="userSpaceOnUse"
       y2="223.2785"
       x2="333.58667"
       y1="463.9928"
       x1="346.44379"
       id="linearGradient3870"
       xlink:href="#linearGradient3864"
       inkscape:collect="always" />
    <linearGradient
       id="linearGradient3864"
       inkscape:collect="always">
      <stop
         id="stop3866"
         offset="0"
         style="stop-color:#4d4d4d;stop-opacity:1" />
      <stop
         id="stop3868"
         offset="1"
         style="stop-color:#c8c4b7;stop-opacity:1" />
    </linearGradient>
  </defs>
  <sodipodi:namedview
     id="base"
     pagecolor="#ffffff"
     bordercolor="#666666"
     borderopacity="1.0"
     inkscape:pageopacity="0.0"
     inkscape:pageshadow="2"
     inkscape:zoom="0.70710678"
     inkscape:cx="599.1116"
     inkscape:cy="385.51169"
     inkscape:document-units="px"
     inkscape:current-layer="layer1"
     showgrid="false"
     guidetolerance="12"
     gridtolerance="10"
     showguides="true"
     inkscape:guide-bbox="true"
     inkscape:window-width="1680"
     inkscape:window-height="995"
     inkscape:window-x="0"
     inkscape:window-y="-3"
     inkscape:window-maximized="1"
     fit-margin-top="0"
     fit-margin-left="0"
     fit-margin-right="0"
     fit-margin-bottom="0" />
  <metadata
     id="metadata4149">
    <rdf:RDF>
      <cc:Work
         rdf:about="">
        <dc:format>image/svg+xml</dc:format>
        <dc:type
           rdf:resource="http://purl.org/dc/dcmitype/StillImage" />
        <dc:title></dc:title>
      </cc:Work>
    </rdf:RDF>
  </metadata>
  <g
     inkscape:label="Layer 1"
     inkscape:groupmode="layer"
     id="layer1"
     transform="translate(-8.6446942,-363.17263)">
    <g
       id="g5404">
      <g
         transform="translate(26.870058,-8.4852813)"
         id="g5062">
        <g
           id="g4979"
           transform="translate(7.0710678,49.497474)">
          <g
             style="fill:#000000;filter:url(#filter4923)"
             id="g4271">
            <g
               style="fill:#000000"
               transform="matrix(1,0,0,0.70118367,0,99.492197)"
               id="g4273">
              <rect
                 style="fill:#000000;fill-opacity:1;stroke:none"
                 id="rect4275"
                 width="837.92157"
                 height="40.158447"
                 x="77.781746"
                 y="332.95435"
                 ry="11.129014" />
              <rect
                 style="fill:#000000;fill-opacity:1;stroke:none"
                 id="rect4277"
                 width="837.87714"
                 height="10.55992"
                 x="77.794952"
                 y="362.48083"
                 ry="0" />
            </g>
            <path
               transform="translate(6.625,335.1427)"
               d="m 94.125,12.844484 c 0,3.106602 -2.518398,5.625 -5.625,5.625 -3.106602,0 -5.625,-2.518398 -5.625,-5.625 0,-3.1066014 2.518398,-5.6249997 5.625,-5.6249997 3.106602,0 5.625,2.5183983 5.625,5.6249997 z"
               sodipodi:ry="5.625"
               sodipodi:rx="5.625"
               sodipodi:cy="12.844484"
               sodipodi:cx="88.5"
               id="path4279"
               style="fill:#000000;fill-opacity:1;stroke:none"
               sodipodi:type="arc" />
            <path
               sodipodi:type="arc"
               style="fill:#000000;fill-opacity:1;stroke:none"
               id="path4281"
               sodipodi:cx="88.5"
               sodipodi:cy="12.844484"
               sodipodi:rx="5.625"
               sodipodi:ry="5.625"
               d="m 94.125,12.844484 c 0,3.106602 -2.518398,5.625 -5.625,5.625 -3.106602,0 -5.625,-2.518398 -5.625,-5.625 0,-3.1066014 2.518398,-5.6249997 5.625,-5.6249997 3.106602,0 5.625,2.5183983 5.625,5.6249997 z"
               transform="translate(25.125,335.1427)" />
            <path
               transform="translate(43.75,335.3927)"
               d="m 94.125,12.844484 c 0,3.106602 -2.518398,5.625 -5.625,5.625 -3.106602,0 -5.625,-2.518398 -5.625,-5.625 0,-3.1066014 2.518398,-5.6249997 5.625,-5.6249997 3.106602,0 5.625,2.5183983 5.625,5.6249997 z"
               sodipodi:ry="5.625"
               sodipodi:rx="5.625"
               sodipodi:cy="12.844484"
               sodipodi:cx="88.5"
               id="path4283"
               style="fill:#000000;fill-opacity:1;stroke:none"
               sodipodi:type="arc" />
            <rect
               ry="0"
               y="360.87119"
               x="77.781746"
               height="549.36255"
               width="837.8952"
               id="rect4285"
               style="fill:#000000;fill-opacity:1;stroke:none" />
          </g>
          <g
             id="g4230">
            <g
               id="g4167"
               transform="matrix(1,0,0,0.70118367,0,99.492197)">
              <rect
                 ry="11.129014"
                 y="332.95435"
                 x="77.781746"
                 height="40.158447"
                 width="837.92157"
                 id="rect4161"
                 style="fill:#f2f2f2;fill-opacity:1;stroke:none" />
              <rect
                 ry="0"
                 y="362.48083"
                 x="77.794952"
                 height="10.55992"
                 width="837.87714"
                 id="rect4163"
                 style="fill:#f2f2f2;fill-opacity:1;stroke:none" />
            </g>
            <path
               sodipodi:type="arc"
               style="fill:#ff0000;fill-opacity:1;stroke:none"
               id="path4171"
               sodipodi:cx="88.5"
               sodipodi:cy="12.844484"
               sodipodi:rx="5.625"
               sodipodi:ry="5.625"
               d="m 94.125,12.844484 c 0,3.106602 -2.518398,5.625 -5.625,5.625 -3.106602,0 -5.625,-2.518398 -5.625,-5.625 0,-3.1066014 2.518398,-5.6249997 5.625,-5.6249997 3.106602,0 5.625,2.5183983 5.625,5.6249997 z"
               transform="translate(6.625,335.1427)" />
            <path
               transform="translate(25.125,335.1427)"
               d="m 94.125,12.844484 c 0,3.106602 -2.518398,5.625 -5.625,5.625 -3.106602,0 -5.625,-2.518398 -5.625,-5.625 0,-3.1066014 2.518398,-5.6249997 5.625,-5.6249997 3.106602,0 5.625,2.5183983 5.625,5.6249997 z"
               sodipodi:ry="5.625"
               sodipodi:rx="5.625"
               sodipodi:cy="12.844484"
               sodipodi:cx="88.5"
               id="path4173"
               style="fill:#ffcc00;fill-opacity:1;stroke:none"
               sodipodi:type="arc" />
            <path
               sodipodi:type="arc"
               style="fill:#2aff2a;fill-opacity:1;stroke:none"
               id="path4187"
               sodipodi:cx="88.5"
               sodipodi:cy="12.844484"
               sodipodi:rx="5.625"
               sodipodi:ry="5.625"
               d="m 94.125,12.844484 c 0,3.106602 -2.518398,5.625 -5.625,5.625 -3.106602,0 -5.625,-2.518398 -5.625,-5.625 0,-3.1066014 2.518398,-5.6249997 5.625,-5.6249997 3.106602,0 5.625,2.5183983 5.625,5.6249997 z"
               transform="translate(43.75,335.3927)" />
            <rect
               style="fill:#f9f9f9;fill-opacity:1;stroke:none"
               id="rect4191"
               width="837.8952"
               height="549.36255"
               x="77.781746"
               y="360.87119"
               ry="0" />
          </g>
        </g>
        <rect
           style="fill:#ff5555;fill-opacity:1;stroke:none"
           id="rect4997"
           width="837.85974"
           height="41.422874"
           x="84.860832"
           y="410.63599" />
        <g
           id="g5005">
          <rect
             y="424.18619"
             x="137.00194"
             height="17.324116"
             width="51.26524"
             id="rect5003"
             style="fill:#c8beb7;fill-opacity:1;stroke:none" />
          <rect
             style="fill:#917c6f;fill-opacity:1;stroke:none"
             id="rect5001"
             width="51.26524"
             height="17.324116"
             x="123.56691"
             y="424.18619" />
          <rect
             y="424.18619"
             x="109.60155"
             height="17.324116"
             width="51.26524"
             id="rect4999"
             style="fill:#d38d5f;fill-opacity:1;stroke:none" />
        </g>
        <rect
           style="fill:#c8beb7;fill-opacity:1;stroke:none"
           id="rect5010"
           width="63"
           height="18"
           x="829"
           y="423.36218" />
        <rect
           y="423.86218"
           x="726"
           height="18"
           width="63"
           id="rect5012"
           style="fill:#c8beb7;fill-opacity:1;stroke:none" />
        <rect
           style="fill:#c8beb7;fill-opacity:1;stroke:none"
           id="rect5014"
           width="63"
           height="18"
           x="621"
           y="424.36218" />
        <rect
           style="fill:#433b52;fill-opacity:1;stroke:none"
           id="rect5016"
           width="839"
           height="212"
           x="84"
           y="450.36218" />
        <rect
           style="fill:#e3dedb;fill-opacity:1;stroke:none"
           id="rect5018"
           width="405"
           height="24"
           x="302"
           y="687.36218" />
        <rect
           y="749.36218"
           x="302"
           height="14"
           width="405"
           id="rect5020"
           style="fill:#e3dedb;fill-opacity:1;stroke:none" />
        <rect
           style="fill:#e3dedb;fill-opacity:1;stroke:none"
           id="rect5022"
           width="326"
           height="14"
           x="303"
           y="787.36218" />
        <rect
           y="828.36218"
           x="303"
           height="12"
           width="405"
           id="rect5024"
           style="fill:#e3dedb;fill-opacity:1;stroke:none" />
        <rect
           style="fill:#e3dedb;fill-opacity:1;stroke:none"
           id="rect5026"
           width="336"
           height="13"
           x="304"
           y="873.36218" />
      </g>
      <g
         transform="matrix(0.54580916,0,0,0.54580916,-31.777336,387.54879)"
         id="g5095">
        <g
           transform="translate(7.0710678,49.497474)"
           id="g5097">
          <g
             id="g5099"
             style="fill:#000000;filter:url(#filter4923)">
            <g
               id="g5101"
               transform="matrix(1,0,0,0.70118367,0,99.492197)"
               style="fill:#000000">
              <rect
                 ry="11.129014"
                 y="332.95435"
                 x="77.781746"
                 height="40.158447"
                 width="837.92157"
                 id="rect5103"
                 style="fill:#000000;fill-opacity:1;stroke:none" />
              <rect
                 ry="0"
                 y="362.48083"
                 x="77.794952"
                 height="10.55992"
                 width="837.87714"
                 id="rect5105"
                 style="fill:#000000;fill-opacity:1;stroke:none" />
            </g>
            <path
               sodipodi:type="arc"
               style="fill:#000000;fill-opacity:1;stroke:none"
               id="path5107"
               sodipodi:cx="88.5"
               sodipodi:cy="12.844484"
               sodipodi:rx="5.625"
               sodipodi:ry="5.625"
               d="m 94.125,12.844484 c 0,3.106602 -2.518398,5.625 -5.625,5.625 -3.106602,0 -5.625,-2.518398 -5.625,-5.625 0,-3.1066014 2.518398,-5.6249997 5.625,-5.6249997 3.106602,0 5.625,2.5183983 5.625,5.6249997 z"
               transform="translate(6.625,335.1427)" />
            <path
               transform="translate(25.125,335.1427)"
               d="m 94.125,12.844484 c 0,3.106602 -2.518398,5.625 -5.625,5.625 -3.106602,0 -5.625,-2.518398 -5.625,-5.625 0,-3.1066014 2.518398,-5.6249997 5.625,-5.6249997 3.106602,0 5.625,2.5183983 5.625,5.6249997 z"
               sodipodi:ry="5.625"
               sodipodi:rx="5.625"
               sodipodi:cy="12.844484"
               sodipodi:cx="88.5"
               id="path5109"
               style="fill:#000000;fill-opacity:1;stroke:none"
               sodipodi:type="arc" />
            <path
               sodipodi:type="arc"
               style="fill:#000000;fill-opacity:1;stroke:none"
               id="path5111"
               sodipodi:cx="88.5"
               sodipodi:cy="12.844484"
               sodipodi:rx="5.625"
               sodipodi:ry="5.625"
               d="m 94.125,12.844484 c 0,3.106602 -2.518398,5.625 -5.625,5.625 -3.106602,0 -5.625,-2.518398 -5.625,-5.625 0,-3.1066014 2.518398,-5.6249997 5.625,-5.6249997 3.106602,0 5.625,2.5183983 5.625,5.6249997 z"
               transform="translate(43.75,335.3927)" />
            <rect
               style="fill:#000000;fill-opacity:1;stroke:none"
               id="rect5113"
               width="837.8952"
               height="549.36255"
               x="77.781746"
               y="360.87119"
               ry="0" />
          </g>
          <g
             id="g5115">
            <g
               transform="matrix(1,0,0,0.70118367,0,99.492197)"
               id="g5117">
              <rect
                 style="fill:#f2f2f2;fill-opacity:1;stroke:none"
                 id="rect5119"
                 width="837.92157"
                 height="40.158447"
                 x="77.781746"
                 y="332.95435"
                 ry="11.129014" />
              <rect
                 style="fill:#f2f2f2;fill-opacity:1;stroke:none"
                 id="rect5121"
                 width="837.87714"
                 height="10.55992"
                 x="77.794952"
                 y="362.48083"
                 ry="0" />
            </g>
            <path
               transform="translate(6.625,335.1427)"
               d="m 94.125,12.844484 c 0,3.106602 -2.518398,5.625 -5.625,5.625 -3.106602,0 -5.625,-2.518398 -5.625,-5.625 0,-3.1066014 2.518398,-5.6249997 5.625,-5.6249997 3.106602,0 5.625,2.5183983 5.625,5.6249997 z"
               sodipodi:ry="5.625"
               sodipodi:rx="5.625"
               sodipodi:cy="12.844484"
               sodipodi:cx="88.5"
               id="path5123"
               style="fill:#ff0000;fill-opacity:1;stroke:none"
               sodipodi:type="arc" />
            <path
               sodipodi:type="arc"
               style="fill:#ffcc00;fill-opacity:1;stroke:none"
               id="path5125"
               sodipodi:cx="88.5"
               sodipodi:cy="12.844484"
               sodipodi:rx="5.625"
               sodipodi:ry="5.625"
               d="m 94.125,12.844484 c 0,3.106602 -2.518398,5.625 -5.625,5.625 -3.106602,0 -5.625,-2.518398 -5.625,-5.625 0,-3.1066014 2.518398,-5.6249997 5.625,-5.6249997 3.106602,0 5.625,2.5183983 5.625,5.6249997 z"
               transform="translate(25.125,335.1427)" />
            <path
               transform="translate(43.75,335.3927)"
               d="m 94.125,12.844484 c 0,3.106602 -2.518398,5.625 -5.625,5.625 -3.106602,0 -5.625,-2.518398 -5.625,-5.625 0,-3.1066014 2.518398,-5.6249997 5.625,-5.6249997 3.106602,0 5.625,2.5183983 5.625,5.6249997 z"
               sodipodi:ry="5.625"
               sodipodi:rx="5.625"
               sodipodi:cy="12.844484"
               sodipodi:cx="88.5"
               id="path5127"
               style="fill:#2aff2a;fill-opacity:1;stroke:none"
               sodipodi:type="arc" />
            <rect
               ry="0"
               y="360.87119"
               x="77.781746"
               height="549.36255"
               width="837.8952"
               id="rect5129"
               style="fill:#f9f9f9;fill-opacity:1;stroke:none" />
          </g>
        </g>
        <rect
           y="410.63599"
           x="84.860832"
           height="41.422874"
           width="837.85974"
           id="rect5131"
           style="fill:#ff5555;fill-opacity:1;stroke:none" />
        <g
           id="g5133">
          <rect
             style="fill:#c8beb7;fill-opacity:1;stroke:none"
             id="rect5135"
             width="51.26524"
             height="17.324116"
             x="137.00194"
             y="424.18619" />
          <rect
             y="424.18619"
             x="123.56691"
             height="17.324116"
             width="51.26524"
             id="rect5137"
             style="fill:#917c6f;fill-opacity:1;stroke:none" />
          <rect
             style="fill:#d38d5f;fill-opacity:1;stroke:none"
             id="rect5139"
             width="51.26524"
             height="17.324116"
             x="109.60155"
             y="424.18619" />
        </g>
        <rect
           y="423.36218"
           x="829"
           height="18"
           width="63"
           id="rect5141"
           style="fill:#c8beb7;fill-opacity:1;stroke:none" />
        <rect
           style="fill:#c8beb7;fill-opacity:1;stroke:none"
           id="rect5143"
           width="63"
           height="18"
           x="726"
           y="423.86218" />
        <rect
           y="424.36218"
           x="621"
           height="18"
           width="63"
           id="rect5145"
           style="fill:#c8beb7;fill-opacity:1;stroke:none" />
        <rect
           y="450.36218"
           x="84"
           height="212"
           width="839"
           id="rect5147"
           style="fill:#433b52;fill-opacity:1;stroke:none" />
        <rect
           y="687.36218"
           x="302"
           height="24"
           width="405"
           id="rect5149"
           style="fill:#e3dedb;fill-opacity:1;stroke:none" />
        <rect
           style="fill:#e3dedb;fill-opacity:1;stroke:none"
           id="rect5151"
           width="405"
           height="14"
           x="302"
           y="749.36218" />
        <rect
           y="787.36218"
           x="303"
           height="14"
           width="326"
           id="rect5153"
           style="fill:#e3dedb;fill-opacity:1;stroke:none" />
        <rect
           style="fill:#e3dedb;fill-opacity:1;stroke:none"
           id="rect5155"
           width="405"
           height="12"
           x="303"
           y="828.36218" />
        <rect
           y="873.36218"
           x="304"
           height="13"
           width="336"
           id="rect5157"
           style="fill:#e3dedb;fill-opacity:1;stroke:none" />
      </g>
      <g
         transform="matrix(0.30425425,0,0,0.74287663,758.2167,222.31068)"
         id="g5159">
        <g
           transform="translate(7.0710678,49.497474)"
           id="g5161">
          <g
             id="g5163"
             style="fill:#000000;filter:url(#filter4923)">
            <g
               id="g5165"
               transform="matrix(1,0,0,0.70118367,0,99.492197)"
               style="fill:#000000" />
            <path
               inkscape:connector-curvature="0"
               id="rect5177"
               d="m 77.781746,360.87119 837.895204,0 0,549.36254 -837.895204,0 z"
               style="fill:#000000;fill-opacity:1;stroke:none" />
          </g>
          <g
             id="g5179">
            <g
               transform="matrix(1,0,0,0.70118367,0,99.492197)"
               id="g5181" />
            <path
               inkscape:connector-curvature="0"
               id="rect5193"
               d="m 77.781746,360.87119 837.895204,0 0,549.36254 -837.895204,0 z"
               style="fill:#f9f9f9;fill-opacity:1;stroke:none" />
          </g>
        </g>
        <path
           inkscape:connector-curvature="0"
           id="rect5195"
           d="m 84.860832,410.63599 837.859738,0 0,41.42287 -837.859738,0 z"
           style="fill:#ff5555;fill-opacity:1;stroke:none" />
        <g
           id="g5197">
          <path
             inkscape:connector-curvature="0"
             id="rect5199"
             d="m 137.00194,424.18619 51.26524,0 0,17.32411 -51.26524,0 z"
             style="fill:#c8beb7;fill-opacity:1;stroke:none" />
          <path
             inkscape:connector-curvature="0"
             id="rect5201"
             d="m 123.56691,424.18619 51.26524,0 0,17.32411 -51.26524,0 z"
             style="fill:#917c6f;fill-opacity:1;stroke:none" />
          <path
             inkscape:connector-curvature="0"
             id="rect5203"
             d="m 109.60155,424.18619 51.26524,0 0,17.32411 -51.26524,0 z"
             style="fill:#d38d5f;fill-opacity:1;stroke:none" />
        </g>
        <path
           inkscape:connector-curvature="0"
           id="rect5205"
           d="m 829,435.47725 63,0 0,5.88493 -63,0 z"
           style="fill:#c8beb7;fill-opacity:1;stroke:none" />
        <path
           inkscape:connector-curvature="0"
           id="rect5211"
           d="m 84,450.36218 839,0 0,212 -839,0 z"
           style="fill:#433b52;fill-opacity:1;stroke:none" />
        <path
           inkscape:connector-curvature="0"
           id="rect5213"
           d="m 302,687.36218 405,0 0,24 -405,0 z"
           style="fill:#e3dedb;fill-opacity:1;stroke:none" />
        <path
           inkscape:connector-curvature="0"
           id="rect5215"
           d="m 302,749.36218 405,0 0,14 -405,0 z"
           style="fill:#e3dedb;fill-opacity:1;stroke:none" />
        <path
           inkscape:connector-curvature="0"
           id="rect5217"
           d="m 303,787.36218 326,0 0,14 -326,0 z"
           style="fill:#e3dedb;fill-opacity:1;stroke:none" />
        <path
           inkscape:connector-curvature="0"
           id="rect5219"
           d="m 303,828.36218 405,0 0,12 -405,0 z"
           style="fill:#e3dedb;fill-opacity:1;stroke:none" />
        <path
           inkscape:connector-curvature="0"
           id="rect5221"
           d="m 304,873.36218 336,0 0,13 -336,0 z"
           style="fill:#e3dedb;fill-opacity:1;stroke:none" />
        <path
           style="fill:#c8beb7;fill-opacity:1;stroke:none"
           d="m 829,426.39095 63,0 0,5.88493 -63,0 z"
           id="path5400"
           inkscape:connector-curvature="0" />
        <path
           inkscape:connector-curvature="0"
           id="path5402"
           d="m 829,417.30465 63,0 0,5.88493 -63,0 z"
           style="fill:#c8beb7;fill-opacity:1;stroke:none" />
      </g>
    </g>
    <g
       transform="matrix(3.7744969,0,0,3.7744969,-422.79473,44.933007)"
       id="layer1-9"
       inkscape:label="Layer 1">
      <g
         id="g4068">
        <g
           id="g4004"
           transform="translate(0,-3.0304576)">
          <g
             id="g3991">
            <g
               id="g3979">
              <g
                 transform="translate(-2.1428571,-20.000001)"
                 id="g3842">
                <g
                   id="g3831">
                  <g
                     id="g3821">
                    <g
                       id="g3000">
                      <path
                         inkscape:transform-center-y="-10.131935"
                         inkscape:transform-center-x="4.4527703"
                         transform="matrix(-0.03893193,0.08694756,-0.08694756,-0.03893193,187.61685,181.70931)"
                         d="M 105.77783,105.09998 C -462.88058,353.2598 -12.731691,684.57431 55.899868,68.06439 124.53143,-548.44553 -385.96886,-326.68424 112.73465,43.352052 611.43816,413.38834 674.43623,-143.05984 105.77783,105.09998 z"
                         inkscape:randomized="0.002"
                         inkscape:rounded="10"
                         inkscape:flatsided="true"
                         sodipodi:arg2="2.2078666"
                         sodipodi:arg1="1.160669"
                         sodipodi:r2="17.914194"
                         sodipodi:r1="35.828388"
                         sodipodi:cy="72.192741"
                         sodipodi:cx="91.428574"
                         sodipodi:sides="3"
                         id="path2998"
                         style="fill:#a02c2c;fill-opacity:1;stroke:none"
                         sodipodi:type="star" />
                      <text
                         xml:space="preserve"
                         style="font-size:42.41546631px;font-style:normal;font-weight:normal;line-height:125%;letter-spacing:0px;word-spacing:0px;fill:#1a1a1a;fill-opacity:1;stroke:none;font-family:Sans"
                         x="264.8909"
                         y="188.07237"
                         id="text3858"
                         sodipodi:linespacing="125%"><tspan
                           sodipodi:role="line"
                           id="tspan3860"
                           x="266.75027"
                           y="188.07237"
                           style="font-size:16px;font-style:normal;font-variant:normal;font-weight:500;font-stretch:normal;text-align:center;text-anchor:middle;fill:#1a1a1a;font-family:Ubuntu;-inkscape-font-specification:Ubuntu Medium">Innovation </tspan><tspan
                           sodipodi:role="line"
                           x="264.8909"
                           y="208.07237"
                           id="tspan3862"
                           style="font-size:16px;font-style:normal;font-variant:normal;font-weight:500;font-stretch:normal;text-align:center;text-anchor:middle;fill:#1a1a1a;font-family:Ubuntu;-inkscape-font-specification:Ubuntu Medium">Technological Insistitue</tspan></text>
                      <text
                         xml:space="preserve"
                         style="font-size:93.70370483px;font-style:normal;font-weight:normal;line-height:125%;letter-spacing:0px;word-spacing:0px;fill:#000000;fill-opacity:1;stroke:none;font-family:Sans"
                         x="362.35999"
                         y="286.7569"
                         id="text3777"
                         sodipodi:linespacing="125%"><tspan
                           sodipodi:role="line"
                           x="362.35999"
                           y="286.7569"
                           id="tspan3781"
                           style="font-size:48px;font-style:normal;font-variant:normal;font-weight:500;font-stretch:normal;text-align:center;text-anchor:middle;font-family:Ubuntu;-inkscape-font-specification:Ubuntu Medium" /></text>
                    </g>
                  </g>
                </g>
              </g>
            </g>
          </g>
        </g>
      </g>
      <flowRoot
         transform="translate(116.45186,82.303468)"
         style="font-size:40px;font-style:normal;font-weight:normal;line-height:125%;letter-spacing:0px;word-spacing:0px;fill:#000000;fill-opacity:1;stroke:none;font-family:Sans"
         id="flowRoot3813"
         xml:space="preserve"><flowRegion
           id="flowRegion3815"><rect
             y="-60.761101"
             x="-146.47212"
             height="484.87323"
             width="768.72607"
             id="rect3817" /></flowRegion><flowPara
           id="flowPara3819" /></flowRoot>    </g>
  </g>
</svg>
